<svg width="36" height="36" viewBox="0 0 36 36" fill="none" xmlns="http://www.w3.org/2000/svg">
<circle cx="18" cy="18" r="17.4028" fill="white" stroke="#E9E9E9" stroke-width="1.19444"/>
<mask id="mask0_6160_93668" style="mask-type:alpha" maskUnits="userSpaceOnUse" x="0" y="0" width="36" height="36">
<circle cx="18" cy="18" r="17.4028" fill="white" stroke="#E9E9E9" stroke-width="1.19444"/>
</mask>
<g mask="url(#mask0_6160_93668)">
<path d="M19.5006 8.08137L19.5128 7.42788L18.3069 7.73209L17.1254 7.38281L17.1132 8.0363L11.5954 9.45594C11.5954 9.45594 11.4493 14.7514 13.8732 15.7993C15.1887 15.8218 16.1875 15.8443 16.9549 15.8556C19.0378 15.8894 19.3423 15.9007 19.3423 15.9007C20.1096 15.9119 21.1084 15.9345 22.4239 15.957C24.8844 14.9993 24.9575 9.70381 24.9575 9.70381L19.5006 8.08137Z" fill="#666666"/>
<path d="M-0.625977 37.7464C-0.625977 37.7464 -0.358005 38.1294 2.06592 38.6027C4.29496 39.0308 7.72988 39.7519 7.64461 38.5576C7.57153 37.3407 0.251023 34.4564 -0.625977 37.7464Z" fill="#056AA3"/>
<path d="M2.99902 30.4899C2.75541 30.7715 -2.04372 41.1259 -0.338447 44.6187C0.234039 45.6778 4.50941 46.8608 6.12942 45.0806C8.26101 43.0976 7.93214 35.3347 7.73725 31.763C7.54236 28.1013 6.48266 26.5013 2.99902 30.4899Z" fill="#FFCBBC"/>
<path d="M12.2771 22.4902C12.2771 22.4902 7.34396 22.8508 4.39627 25.3521C2.44739 26.997 2.1916 29.78 0.766472 34.1628C0.425417 35.1994 -1.48693 36.7092 -0.609929 37.7458C0.133084 35.8529 5.79704 37.0134 7.02727 37.8359C8.74473 36.8106 13.8849 23.1212 12.2771 22.4902Z" fill="#038CD9"/>
<path d="M36.0541 38.4115C36.0541 38.4115 35.7739 38.7833 33.3256 39.1664C31.0844 39.5157 27.6129 40.1128 27.7469 38.9185C27.8809 37.713 35.311 35.0878 36.0541 38.4115Z" fill="#056AA3"/>
<path d="M32.7357 31.0305C32.9671 31.3121 37.3277 41.8468 35.4763 45.2719C34.8551 46.3085 31.7003 47.0071 30.1656 45.1818C29.4469 40.7539 26.9377 36.3485 27.9487 32.1459C28.3019 28.4728 29.4226 26.9067 32.7357 31.0305Z" fill="#FFCBBC"/>
<path d="M23.8142 22.6943C23.8142 22.6943 28.723 23.2352 31.5733 25.8378C33.4491 27.5504 33.5952 30.3446 34.8376 34.7726C35.13 35.8204 36.9814 37.3978 36.0679 38.4005C35.3979 36.4851 29.6974 37.4316 28.4307 38.209C26.7376 37.1386 22.1699 23.269 23.8142 22.6943Z" fill="#038CD9"/>
<path d="M22.7906 21.4646C22.754 22.9969 20.5981 24.2025 17.9792 24.1574C15.3482 24.1123 13.2532 22.8279 13.2776 21.2956C13.3141 19.7633 15.4701 18.5577 18.0889 18.6028C20.7199 18.6366 22.8149 19.921 22.7906 21.4646Z" fill="#056AA3"/>
<path d="M23.4096 26.0518C22.1916 23.2801 21.2658 15.7537 21.2658 15.7537L20.3767 15.7425L15.9308 15.6636L15.0416 15.6523C15.0416 15.6523 13.7992 23.1449 12.4593 25.8602C11.2169 28.4066 16.3693 38.4567 17.6726 38.4793C18.9881 38.5018 24.5424 28.6432 23.4096 26.0518Z" fill="#FFCBBC"/>
<path d="M6.60776 36.7672C6.59558 36.7672 6.5834 36.7672 6.57121 36.7559C6.52249 36.7334 1.11433 34.525 -0.566582 36.4517C-0.603124 36.4968 -0.664026 36.4968 -0.712749 36.463C-0.761471 36.4292 -0.761471 36.3728 -0.724929 36.3278C1.05343 34.2997 6.43723 36.4855 6.65648 36.5869C6.7052 36.6094 6.72956 36.6658 6.7052 36.7108C6.68084 36.7446 6.6443 36.7672 6.60776 36.7672Z" fill="white"/>
<path d="M18.3457 24.1307C14.6601 24.0851 13.4651 22.8369 13.4651 22.8369C10.6097 23.2783 9.96816 23.324 8.33291 23.8111C7.02472 24.5722 6.53414 27.9513 5.6662 29.8464C4.93663 31.437 5.62847 35.0216 6.11904 37.3962C6.5593 39.4663 6.39577 42.4497 4.44606 45.8364C2.23218 47.3738 9.03733 48.3175 17.3645 48.4088C25.6917 48.5002 32.5472 47.7239 30.4339 46.1408C28.7106 42.716 28.7358 39.725 29.3018 37.6701C29.9559 35.3108 30.8742 31.749 30.2452 30.1356C29.5031 28.2177 29.2263 24.8385 27.9685 24.047C26.3584 23.5219 25.7169 23.461 22.8992 22.9511C22.9244 22.9435 22.0313 24.1688 18.3457 24.1307Z" fill="#038CD9"/>
<g opacity="0.5">
<path opacity="0.5" d="M22.9941 22.929C22.9697 22.7149 22.9332 22.5121 22.8601 22.3319C22.7627 22.3093 22.6652 22.2755 22.5556 22.253C22.5556 22.253 21.703 24.067 18.1219 23.9994C14.5408 23.9318 13.3958 22.084 13.3958 22.084C13.3228 22.1065 13.2375 22.1178 13.1644 22.1403C13.0061 23.5938 15.9172 26.2302 17.1718 26.6133C17.1718 26.6133 15.6371 24.8331 15.698 24.405C15.7589 23.9768 16.8064 24.5965 18.7066 24.3825C20.6067 24.1684 19.4008 25.9711 18.6335 26.6584C20.3144 26.5908 23.1037 24.0332 22.9941 22.929Z" fill="#FFCBBC"/>
</g>
<path d="M12.9688 22.3911C13.2124 23.7544 15.344 24.8473 17.9506 24.8924C20.5572 24.9375 22.7375 23.9234 23.0299 22.5714C22.8106 22.47 22.5792 22.3573 22.3478 22.2447C22.3478 22.2447 21.5439 24.0586 17.975 23.991C14.4061 23.9234 13.6752 22.0869 13.6752 22.0869C13.4316 22.1996 13.188 22.2897 12.9688 22.3911Z" fill="#056AA3"/>
<path d="M22.5177 22.3213C22.3107 22.6706 21.2631 24.0564 18.1327 24.0001C18.1084 24.0001 18.084 24.0001 18.0475 24.0001C18.0231 24.0001 17.9988 24.0001 17.9622 24.0001C16.464 23.9775 15.4652 23.6395 14.8196 23.2452C14.0279 22.8283 13.6138 22.3663 13.4676 22.1748C13.3702 22.2199 13.2605 22.2649 13.1631 22.31C13.1753 22.6593 13.3458 23.0649 13.6016 23.493C14.101 23.9663 14.844 24.3493 15.7332 24.5972C15.7088 24.5183 15.6966 24.462 15.6966 24.4169C15.7575 23.9888 16.8051 24.6085 18.7052 24.3944C19.363 24.3155 19.6431 24.4845 19.704 24.7662C21.3362 24.4733 22.5908 23.7297 22.9441 22.8058C22.9319 22.7156 22.9075 22.6142 22.8832 22.5241C22.7857 22.4452 22.6517 22.3889 22.5177 22.3213Z" fill="#056AA3"/>
<path d="M18.7258 28.1252C18.9207 27.1112 19.274 26.7394 19.481 26.6042C19.1156 26.7507 18.2508 27.0887 17.9219 27.0774C17.5809 27.0661 16.7404 26.7056 16.375 26.5479C16.5455 26.6605 16.8135 26.9535 16.984 27.6633C17.1911 27.7647 17.7636 28.2492 17.7149 30.5138C17.654 33.2743 17.5565 35.3586 17.7149 35.6065C18.2143 36.3614 17.6418 29.4547 18.7258 28.1252Z" fill="#056AA3"/>
<g opacity="0.5">
<path opacity="0.5" d="M16.3756 26.5457C16.2782 26.4781 16.2051 26.4668 16.2051 26.4668C16.2051 26.4668 16.266 26.5006 16.3756 26.5457Z" fill="#FFCBBC"/>
<path opacity="0.5" d="M19.4834 26.6013C19.593 26.5563 19.6539 26.5225 19.6539 26.5225C19.6539 26.5225 19.5808 26.5337 19.4834 26.6013Z" fill="#FFCBBC"/>
</g>
<path d="M25.4308 12.5874C25.2846 13.6014 24.5538 14.3337 23.8108 14.2211C23.0678 14.1197 22.5805 13.207 22.7389 12.193C22.8972 11.179 23.6159 10.4466 24.3589 10.5593C25.0897 10.6607 25.5769 11.5733 25.4308 12.5874Z" fill="#FFCBBC"/>
<path d="M23.6134 13.1406L23.1992 13.9068C23.3697 14.0758 23.5768 14.1885 23.8082 14.2223C24.1858 14.2786 24.5513 14.1209 24.8436 13.8166C24.0519 14.0983 23.6134 13.1406 23.6134 13.1406Z" fill="#FFCBBC"/>
<path d="M11.0087 12.3289C11.1183 13.343 11.8126 14.1091 12.5556 14.0303C13.2986 13.9514 13.8224 13.0613 13.7127 12.0473C13.6031 11.022 12.921 10.2558 12.1658 10.3347C11.4228 10.4248 10.899 11.3036 11.0087 12.3289Z" fill="#FFCBBC"/>
<path d="M12.7995 12.9492L13.1771 13.7379C12.9944 13.8956 12.7873 13.997 12.5559 14.0308C12.1783 14.0759 11.8251 13.8956 11.5449 13.5914C12.3123 13.8956 12.7995 12.9492 12.7995 12.9492Z" fill="#FFCBBC"/>
<path d="M24.0787 11.9775C24.0056 15.6957 21.3015 19.1546 18.0737 19.0983C14.8458 19.042 12.2879 15.4929 12.3732 11.7747C12.4462 8.05663 15.1381 5.08215 18.366 5.13848C21.606 5.19482 24.1639 8.25944 24.0787 11.9775Z" fill="#FFCBBC"/>
<path d="M14.2334 19.6641C14.2334 19.6641 11.5781 22.0977 17.7414 27.1003C15.6342 26.7961 15.5733 25.782 14.745 26.4806C13.9167 27.1792 13.527 28.1143 12.5891 28.5425C13.1128 27.1228 11.9191 23.9005 12.3576 21.9963C12.7961 20.0922 14.2334 19.6641 14.2334 19.6641Z" fill="#056AA3"/>
<path d="M21.8945 19.7988C21.8945 19.7988 24.4403 22.3226 18.082 27.0998C20.2014 26.8745 20.2989 25.8605 21.1028 26.5928C21.8945 27.3252 22.2478 28.2716 23.1735 28.7336C22.7106 27.2914 24.0383 24.1254 23.6729 22.1987C23.3075 20.2833 21.8945 19.7988 21.8945 19.7988Z" fill="#056AA3"/>
<g opacity="0.5">
<path opacity="0.5" d="M22.6902 22.4456C22.3369 23.9892 21.2894 25.544 20.8144 26.389C20.2419 26.1186 19.9252 26.9073 18.0859 27.0989C24.4442 22.3217 21.8984 19.7979 21.8984 19.7979C21.8984 19.7979 23.1043 20.6316 22.6902 22.4456Z" fill="#FFCBBC"/>
</g>
<g opacity="0.5">
<path opacity="0.5" d="M13.322 22.277C13.6143 23.8319 14.5887 25.4318 15.0272 26.2881C15.6119 26.0402 15.9042 26.8402 17.7313 27.0993C11.5801 22.0968 14.2233 19.6631 14.2233 19.6631C14.2233 19.6631 12.9809 20.4405 13.322 22.277Z" fill="#056AA3"/>
</g>
<path d="M1.44397 36.7909C1.41961 36.7909 1.40743 36.7796 1.38307 36.7796C1.00547 36.543 0.810583 36.2162 0.847125 35.912C0.883667 35.6078 1.12728 35.3712 1.54142 35.2248C1.71194 35.1684 1.80939 35.1008 1.84593 35.0332C1.88247 34.9543 1.80939 34.8191 1.72412 34.6614C1.6145 34.4586 1.46833 34.1995 1.43179 33.8502C1.56578 31.3602 3.77046 27.428 3.8679 27.259C3.89226 27.2139 3.95316 27.1914 4.00189 27.2139C4.05061 27.2365 4.07497 27.2928 4.05061 27.3379C4.02625 27.3829 1.76067 31.4052 1.63886 33.8389C1.6754 34.1319 1.80939 34.3797 1.90683 34.5713C2.01646 34.7741 2.10172 34.9431 2.04082 35.1008C1.9921 35.2248 1.85811 35.3149 1.62668 35.3938C1.29781 35.5064 1.09074 35.698 1.06638 35.9233C1.04201 36.1599 1.20036 36.4191 1.51706 36.6106C1.56578 36.6444 1.57796 36.7007 1.54142 36.7458C1.50488 36.7796 1.48051 36.7909 1.44397 36.7909Z" fill="white"/>
<path d="M33.955 37.3766C33.9184 37.3766 33.8941 37.3653 33.8697 37.3315C33.8454 37.2864 33.8575 37.2301 33.9063 37.1963C34.223 37.016 34.4057 36.7569 34.3813 36.5203C34.3569 36.2949 34.1742 36.1034 33.8454 35.9682C33.6139 35.8781 33.4921 35.7767 33.4434 35.664C33.3825 35.5063 33.4799 35.3485 33.6017 35.1457C33.7114 34.9542 33.8575 34.7176 33.9063 34.4134C33.8819 31.9909 31.7868 27.8898 31.7625 27.8447C31.7381 27.7996 31.7625 27.7433 31.8112 27.7208C31.8599 27.6982 31.9208 27.7208 31.9452 27.7658C32.0305 27.9348 34.0768 31.9459 34.1012 34.4246C34.0403 34.7852 33.8941 35.033 33.7723 35.2358C33.6748 35.3936 33.6017 35.5175 33.6383 35.6077C33.6627 35.6753 33.7601 35.7429 33.9306 35.7992C34.3326 35.9569 34.564 36.2048 34.5884 36.509C34.6127 36.8245 34.3935 37.14 34.0159 37.3653C33.9915 37.3766 33.9672 37.3766 33.955 37.3766Z" fill="white"/>
<path d="M28.6566 37.2624C28.62 37.2624 28.5835 37.2399 28.5591 37.2061C28.5348 37.161 28.5591 37.1047 28.62 37.0821C28.8637 36.992 34.6129 34.9076 36.306 37.0033C36.3425 37.0483 36.3303 37.1047 36.2816 37.1385C36.2329 37.1723 36.172 37.161 36.1354 37.1159C34.5398 35.1329 28.754 37.2399 28.6931 37.2624C28.6809 37.2624 28.6688 37.2624 28.6566 37.2624Z" fill="white"/>
<path d="M24.6385 7.46211C24.6019 6.12134 23.9077 5.17491 22.4582 4.45383C21.0696 3.76654 19.681 3.37219 18.4142 3.34966C17.0866 3.32713 15.7345 3.6764 14.3338 4.30735C12.8477 4.97211 12.1169 5.90727 12.0194 7.23677C11.2886 8.45361 11.3861 10.0648 12.1656 10.3352C12.1656 10.3352 12.3483 10.6169 12.3849 12.3182C12.4336 12.859 13.2131 13.1181 13.3349 12.9491C13.4568 12.7914 12.9817 10.2225 13.5298 9.62538C14.078 9.02823 13.7369 7.93533 14.4799 7.24804C15.162 6.62836 16.5871 7.11284 18.3533 7.0565C20.1073 7.16917 21.5568 6.74103 22.2146 7.38324C22.921 8.09307 22.5434 9.1747 23.0672 9.78312C23.591 10.4028 23.0063 12.9491 23.1159 13.1069C23.2255 13.2759 24.0173 13.0393 24.0904 12.5097C24.1878 10.8084 24.3827 10.538 24.3827 10.538C25.1501 10.3239 25.3206 8.71275 24.6385 7.46211Z" fill="#666666"/>
<path opacity="0.4" d="M22.1914 7.40722C22.8979 8.11705 22.5203 9.19868 23.044 9.8071C23.5678 10.4268 22.9831 12.9731 23.0928 13.1309C23.1658 13.2435 23.5678 13.1647 23.8358 12.9281C23.7018 12.7703 23.6043 12.5675 23.5556 12.3647C23.446 11.9028 23.5313 11.4295 23.6409 10.9676C23.6896 10.7648 23.7505 10.5507 23.7261 10.3366C23.6774 9.96483 23.3973 9.66062 23.2998 9.30008C23.1537 8.70293 23.5556 8.09451 23.5191 7.48609C23.4825 7.00161 23.1658 6.57347 22.7639 6.28053C22.3497 5.98758 21.8503 5.81858 21.3509 5.69464C20.3643 5.45803 19.329 5.39043 18.3058 5.48057C17.2948 5.35663 16.2595 5.39043 15.2607 5.59324C14.7491 5.69464 14.2497 5.85238 13.8234 6.12279C13.397 6.40446 13.0682 6.83261 13.0194 7.30582C12.9464 7.91424 13.3361 8.53392 13.1534 9.11981C13.0438 9.48035 12.7515 9.77329 12.6906 10.1451C12.654 10.3592 12.7028 10.5733 12.7515 10.7761C12.8489 11.238 12.9098 11.7225 12.7758 12.1732C12.7271 12.3534 12.6419 12.5224 12.5322 12.6689C12.7758 12.9619 13.2387 13.0858 13.3361 12.9619C13.4579 12.8041 12.9829 10.2352 13.531 9.63809C14.0792 9.04094 13.7381 7.94804 14.4811 7.26075C15.1632 6.64107 16.5883 7.12555 18.3545 7.06921C20.0842 7.18188 21.5458 6.75374 22.1914 7.40722Z" fill="#666666"/>
<path d="M19.5026 8.08137L19.5147 7.42788L18.3089 7.73209L17.1274 7.38281L17.1152 8.0363L11.5974 9.45594C11.5974 9.45594 11.4512 14.7514 13.8752 15.7993C15.1907 15.8218 16.1895 15.8443 16.9568 15.8556C19.0397 15.8894 19.3442 15.9007 19.3442 15.9007C20.1116 15.9119 21.1104 15.9345 22.4259 15.957C24.8864 14.9993 24.9594 9.70381 24.9594 9.70381L19.5026 8.08137Z" fill="#666666"/>
<path d="M-0.625977 37.7464C-0.625977 37.7464 -0.358005 38.1294 2.06592 38.6027C4.29496 39.0308 7.72988 39.7519 7.64461 38.5576C7.57153 37.3407 0.251023 34.4564 -0.625977 37.7464Z" fill="#666666"/>
<path d="M2.99902 30.4889C2.75541 30.7706 -2.04372 41.1249 -0.338447 44.6177C0.234039 45.6768 4.50941 46.8598 6.12942 45.0797C8.26101 43.0967 7.93214 35.3337 7.73725 31.7621C7.54236 28.1003 6.48266 26.5004 2.99902 30.4889Z" fill="#CECECE"/>
<path d="M12.2771 22.4902C12.2771 22.4902 7.34396 22.8508 4.39627 25.3521C2.44739 26.997 2.1916 29.78 0.766472 34.1628C0.425417 35.1994 -1.48693 36.7092 -0.609929 37.7458C0.133084 35.8529 5.79704 37.0134 7.02727 37.8359C8.74473 36.8106 13.8849 23.1212 12.2771 22.4902Z" fill="#2D2D2D"/>
<path d="M36.0541 38.4115C36.0541 38.4115 35.7739 38.7833 33.3256 39.1664C31.0844 39.5157 27.6129 40.1128 27.7469 38.9185C27.8809 37.713 35.311 35.0878 36.0541 38.4115Z" fill="#666666"/>
<path d="M32.7357 31.0305C32.9671 31.3121 37.3277 41.8468 35.4763 45.2719C34.8551 46.3085 31.7003 47.0071 30.1656 45.1818C29.4469 40.7539 26.9377 36.3485 27.9487 32.1459C28.3019 28.4728 29.4226 26.9067 32.7357 31.0305Z" fill="#CECECE"/>
<path d="M23.8142 22.6943C23.8142 22.6943 28.723 23.2352 31.5733 25.8378C33.4491 27.5504 33.5952 30.3446 34.8376 34.7726C35.13 35.8204 36.9814 37.3978 36.0679 38.4005C35.3979 36.4851 29.6974 37.4316 28.4307 38.209C26.7376 37.1386 22.1699 23.269 23.8142 22.6943Z" fill="#2D2D2D"/>
<path d="M22.7906 21.4646C22.754 22.9969 20.5981 24.2025 17.9792 24.1574C15.3482 24.1123 13.2532 22.8279 13.2776 21.2956C13.3141 19.7633 15.4701 18.5577 18.0889 18.6028C20.7199 18.6366 22.8149 19.921 22.7906 21.4646Z" fill="#666666"/>
<path d="M23.4096 26.0518C22.1916 23.2801 21.2658 15.7537 21.2658 15.7537L20.3767 15.7425L15.9308 15.6636L15.0416 15.6523C15.0416 15.6523 13.7992 23.1449 12.4593 25.8602C11.2169 28.4066 16.3693 38.4567 17.6726 38.4793C18.9881 38.5018 24.5424 28.6432 23.4096 26.0518Z" fill="#CECECE"/>
<path d="M6.60678 36.7672C6.5946 36.7672 6.58242 36.7672 6.57024 36.7559C6.52152 36.7334 1.11336 34.525 -0.567559 36.4517C-0.6041 36.4968 -0.665003 36.4968 -0.713725 36.463C-0.762447 36.4292 -0.762448 36.3728 -0.725906 36.3278C1.05245 34.2997 6.43625 36.4855 6.6555 36.5869C6.70423 36.6094 6.72859 36.6658 6.70422 36.7108C6.67986 36.7446 6.64332 36.7672 6.60678 36.7672Z" fill="white"/>
<path d="M18.3457 24.1298C14.6601 24.0841 13.4651 22.8359 13.4651 22.8359C10.6097 23.2774 9.96816 23.323 8.33291 23.8101C7.02472 24.5712 6.53414 27.9503 5.6662 29.8454C4.93663 31.436 5.62847 35.0207 6.11904 37.3952C6.5593 39.4653 6.39577 42.4487 4.44606 45.8354C2.23218 47.3728 9.03733 48.3165 17.3645 48.4079C25.6917 48.4992 32.5472 47.7229 30.4339 46.1399C28.7106 42.7151 28.7358 39.7241 29.3018 37.6692C29.9559 35.3099 30.8742 31.7481 30.2452 30.1346C29.5031 28.2167 29.2263 24.8375 27.9685 24.046C26.3584 23.5209 25.7169 23.46 22.8992 22.9501C22.9244 22.9425 22.0313 24.1678 18.3457 24.1298Z" fill="#2D2D2D"/>
<g opacity="0.5">
<path opacity="0.5" d="M22.9941 22.929C22.9697 22.7149 22.9332 22.5121 22.8601 22.3319C22.7627 22.3093 22.6652 22.2755 22.5556 22.253C22.5556 22.253 21.703 24.067 18.1219 23.9994C14.5408 23.9318 13.3958 22.084 13.3958 22.084C13.3228 22.1065 13.2375 22.1178 13.1644 22.1403C13.0061 23.5938 15.9172 26.2302 17.1718 26.6133C17.1718 26.6133 15.6371 24.8331 15.698 24.405C15.7589 23.9768 16.8064 24.5965 18.7066 24.3825C20.6067 24.1684 19.4008 25.9711 18.6335 26.6584C20.3144 26.5908 23.1037 24.0332 22.9941 22.929Z" fill="#CECECE"/>
</g>
<path d="M12.9688 22.3901C13.2124 23.7535 15.344 24.8464 17.9506 24.8914C20.5572 24.9365 22.7375 23.9225 23.0299 22.5704C22.8106 22.469 22.5792 22.3563 22.3478 22.2437C22.3478 22.2437 21.5439 24.0577 17.975 23.9901C14.4061 23.9225 13.6752 22.0859 13.6752 22.0859C13.4316 22.1986 13.188 22.2887 12.9688 22.3901Z" fill="#666666"/>
<path d="M22.5177 22.3213C22.3107 22.6706 21.2631 24.0564 18.1327 24.0001C18.1084 24.0001 18.084 24.0001 18.0475 24.0001C18.0231 24.0001 17.9988 24.0001 17.9622 24.0001C16.464 23.9775 15.4652 23.6395 14.8196 23.2452C14.0279 22.8283 13.6138 22.3663 13.4676 22.1748C13.3702 22.2199 13.2605 22.2649 13.1631 22.31C13.1753 22.6593 13.3458 23.0649 13.6016 23.493C14.101 23.9663 14.844 24.3493 15.7332 24.5972C15.7088 24.5183 15.6966 24.462 15.6966 24.4169C15.7575 23.9888 16.8051 24.6085 18.7052 24.3944C19.363 24.3155 19.6431 24.4845 19.704 24.7662C21.3362 24.4733 22.5908 23.7297 22.9441 22.8058C22.9319 22.7156 22.9075 22.6142 22.8832 22.5241C22.7857 22.4452 22.6517 22.3889 22.5177 22.3213Z" fill="#CECECE"/>
<path d="M18.7258 28.1252C18.9207 27.1112 19.274 26.7394 19.481 26.6042C19.1156 26.7507 18.2508 27.0887 17.9219 27.0774C17.5809 27.0661 16.7404 26.7056 16.375 26.5479C16.5455 26.6605 16.8135 26.9535 16.984 27.6633C17.1911 27.7647 17.7636 28.2492 17.7149 30.5138C17.654 33.2743 17.5565 35.3586 17.7149 35.6065C18.2143 36.3614 17.6418 29.4547 18.7258 28.1252Z" fill="#666666"/>
<g opacity="0.5">
<path opacity="0.5" d="M16.3756 26.5457C16.2782 26.4781 16.2051 26.4668 16.2051 26.4668C16.2051 26.4668 16.266 26.5006 16.3756 26.5457Z" fill="#CECECE"/>
<path opacity="0.5" d="M19.4834 26.6013C19.593 26.5563 19.6539 26.5225 19.6539 26.5225C19.6539 26.5225 19.5808 26.5337 19.4834 26.6013Z" fill="#CECECE"/>
</g>
<path d="M25.4337 12.5874C25.2875 13.6014 24.5567 14.3337 23.8137 14.2211C23.0707 14.1197 22.5835 13.207 22.7418 12.193C22.9002 11.179 23.6188 10.4466 24.3618 10.5593C25.0927 10.6607 25.5799 11.5733 25.4337 12.5874Z" fill="#999999"/>
<path d="M23.6153 13.1406L23.2012 13.9068C23.3717 14.0758 23.5788 14.1885 23.8102 14.2223C24.1878 14.2786 24.5532 14.1209 24.8455 13.8166C24.0538 14.0983 23.6153 13.1406 23.6153 13.1406Z" fill="#999999"/>
<path d="M11.0116 12.3289C11.1212 13.343 11.8155 14.1091 12.5585 14.0303C13.3015 13.9514 13.8253 13.0613 13.7157 12.0473C13.606 11.022 12.9239 10.2558 12.1687 10.3347C11.4257 10.4248 10.902 11.3036 11.0116 12.3289Z" fill="#999999"/>
<path d="M12.8015 12.9492L13.1791 13.7379C12.9964 13.8956 12.7893 13.997 12.5579 14.0308C12.1803 14.0759 11.827 13.8956 11.5469 13.5914C12.3142 13.8956 12.8015 12.9492 12.8015 12.9492Z" fill="#999999"/>
<path d="M24.0816 11.9775C24.0085 15.6957 21.3044 19.1546 18.0766 19.0983C14.8487 19.042 12.2908 15.4929 12.3761 11.7747C12.4492 8.05663 15.1411 5.08215 18.3689 5.13848C21.6089 5.19482 24.1669 8.25944 24.0816 11.9775Z" fill="#CECECE"/>
<path d="M14.2334 19.6641C14.2334 19.6641 11.5781 22.0977 17.7414 27.1003C15.6342 26.7961 15.5733 25.782 14.745 26.4806C13.9167 27.1792 13.527 28.1143 12.5891 28.5425C13.1128 27.1228 11.9191 23.9005 12.3576 21.9963C12.7961 20.0922 14.2334 19.6641 14.2334 19.6641Z" fill="#999999"/>
<path d="M21.8945 19.7988C21.8945 19.7988 24.4403 22.3226 18.082 27.0998C20.2014 26.8745 20.2989 25.8605 21.1028 26.5928C21.8945 27.3252 22.2478 28.2716 23.1735 28.7336C22.7106 27.2914 24.0383 24.1254 23.6729 22.1987C23.3075 20.2833 21.8945 19.7988 21.8945 19.7988Z" fill="#999999"/>
<g opacity="0.5">
<path opacity="0.5" d="M22.6892 22.4456C22.336 23.9892 21.2884 25.544 20.8134 26.389C20.2409 26.1186 19.9242 26.9073 18.085 27.0989C24.4432 22.3217 21.8975 19.7979 21.8975 19.7979C21.8975 19.7979 23.1033 20.6316 22.6892 22.4456Z" fill="#999999"/>
</g>
<g opacity="0.5">
<path opacity="0.5" d="M13.322 22.2761C13.6143 23.8309 14.5887 25.4308 15.0272 26.2871C15.6119 26.0392 15.9042 26.8392 17.7313 27.0983C11.5801 22.0958 14.2233 19.6621 14.2233 19.6621C14.2233 19.6621 12.9809 20.4395 13.322 22.2761Z" fill="#666666"/>
</g>
<path d="M1.44495 36.7909C1.42059 36.7909 1.40841 36.7796 1.38405 36.7796C1.00645 36.543 0.81156 36.2162 0.848102 35.912C0.884643 35.6078 1.12825 35.3712 1.54239 35.2248C1.71292 35.1684 1.81037 35.1008 1.84691 35.0332C1.88345 34.9543 1.81036 34.8191 1.7251 34.6614C1.61548 34.4586 1.46931 34.1995 1.43277 33.8502C1.56675 31.3602 3.77143 27.428 3.86888 27.259C3.89324 27.2139 3.95414 27.1914 4.00286 27.2139C4.05158 27.2365 4.07595 27.2928 4.05158 27.3379C4.02722 27.3829 1.76164 31.4052 1.63984 33.8389C1.67638 34.1319 1.81036 34.3797 1.90781 34.5713C2.01743 34.7741 2.1027 34.9431 2.0418 35.1008C1.99307 35.2248 1.85909 35.3149 1.62766 35.3938C1.29878 35.5064 1.09171 35.698 1.06735 35.9233C1.04299 36.1599 1.20134 36.4191 1.51803 36.6106C1.56675 36.6444 1.57893 36.7007 1.54239 36.7458C1.50585 36.7796 1.48149 36.7909 1.44495 36.7909Z" fill="white"/>
<path d="M33.956 37.3746C33.9194 37.3746 33.8951 37.3634 33.8707 37.3296C33.8463 37.2845 33.8585 37.2281 33.9072 37.1943C34.2239 37.0141 34.4066 36.7549 34.3823 36.5183C34.3579 36.293 34.1752 36.1014 33.8463 35.9662C33.6149 35.8761 33.4931 35.7747 33.4444 35.662C33.3835 35.5043 33.4809 35.3466 33.6027 35.1438C33.7123 34.9522 33.8585 34.7156 33.9072 34.4114C33.8829 31.989 31.7878 27.8878 31.7635 27.8427C31.7391 27.7977 31.7635 27.7413 31.8122 27.7188C31.8609 27.6963 31.9218 27.7188 31.9462 27.7639C32.0314 27.9329 34.0778 31.9439 34.1021 34.4227C34.0412 34.7832 33.8951 35.0311 33.7733 35.2339C33.6758 35.3916 33.6027 35.5156 33.6393 35.6057C33.6636 35.6733 33.7611 35.7409 33.9316 35.7972C34.3336 35.955 34.565 36.2029 34.5893 36.5071C34.6137 36.8225 34.3945 37.138 34.0169 37.3634C33.9925 37.3746 33.9681 37.3746 33.956 37.3746Z" fill="white"/>
<path d="M28.6576 37.2624C28.621 37.2624 28.5845 37.2399 28.5601 37.2061C28.5358 37.161 28.5601 37.1047 28.621 37.0821C28.8646 36.992 34.6138 34.9076 36.3069 37.0033C36.3435 37.0483 36.3313 37.1047 36.2826 37.1385C36.2339 37.1723 36.173 37.161 36.1364 37.1159C34.5408 35.1329 28.755 37.2399 28.6941 37.2624C28.6819 37.2624 28.6697 37.2624 28.6576 37.2624Z" fill="white"/>
<path d="M24.6404 7.46211C24.6039 6.12134 23.9096 5.17491 22.4601 4.45383C21.0715 3.76654 19.683 3.37219 18.4162 3.34966C17.0885 3.32713 15.7365 3.6764 14.3357 4.30735C12.8497 4.97211 12.1188 5.90727 12.0214 7.23677C11.2906 8.45361 11.388 10.0648 12.1676 10.3352C12.1676 10.3352 12.3503 10.6169 12.3868 12.3182C12.4355 12.859 13.2151 13.1181 13.3369 12.9491C13.4587 12.7914 12.9837 10.2225 13.5318 9.62538C14.0799 9.02823 13.7389 7.93533 14.4819 7.24804C15.164 6.62836 16.5891 7.11284 18.3553 7.0565C20.1093 7.16917 21.5588 6.74103 22.2165 7.38324C22.923 8.09307 22.5454 9.1747 23.0692 9.78312C23.5929 10.4028 23.0082 12.9491 23.1179 13.1069C23.2275 13.2759 24.0192 13.0393 24.0923 12.5097C24.1898 10.8084 24.3847 10.538 24.3847 10.538C25.152 10.3239 25.3226 8.71275 24.6404 7.46211Z" fill="#666666"/>
<path opacity="0.4" d="M22.1933 7.40722C22.8998 8.11705 22.5222 9.19868 23.046 9.8071C23.5697 10.4268 22.9851 12.9731 23.0947 13.1309C23.1678 13.2435 23.5697 13.1647 23.8377 12.9281C23.7037 12.7703 23.6063 12.5675 23.5576 12.3647C23.4479 11.9028 23.5332 11.4295 23.6428 10.9676C23.6916 10.7648 23.7525 10.5507 23.7281 10.3366C23.6794 9.96483 23.3992 9.66062 23.3018 9.30008C23.1556 8.70293 23.5576 8.09451 23.521 7.48609C23.4845 7.00161 23.1678 6.57347 22.7658 6.28053C22.3517 5.98758 21.8523 5.81858 21.3529 5.69464C20.3663 5.45803 19.3309 5.39043 18.3078 5.48057C17.2968 5.35663 16.2614 5.39043 15.2626 5.59324C14.751 5.69464 14.2516 5.85238 13.8253 6.12279C13.399 6.40446 13.0701 6.83261 13.0214 7.30582C12.9483 7.91424 13.3381 8.53392 13.1554 9.11981C13.0458 9.48035 12.7534 9.77329 12.6925 10.1451C12.656 10.3592 12.7047 10.5733 12.7534 10.7761C12.8509 11.238 12.9118 11.7225 12.7778 12.1732C12.7291 12.3534 12.6438 12.5224 12.5342 12.6689C12.7778 12.9619 13.2407 13.0858 13.3381 12.9619C13.4599 12.8041 12.9849 10.2352 13.533 9.63809C14.0811 9.04094 13.7401 7.94804 14.4831 7.26075C15.1652 6.64107 16.5903 7.12555 18.3565 7.06921C20.0861 7.18188 21.5478 6.75374 22.1933 7.40722Z" fill="#666666"/>
</g>
</svg>
